<svg width="226" height="62" viewBox="0 0 226 62" fill="none" xmlns="http://www.w3.org/2000/svg">
<g filter="url(#filter0_d_62_65)">
<path d="M27.6264 44.5435C19.8797 34.5101 19.8797 21.4668 27.6264 11.4335" stroke="#FFB300" stroke-width="3.5" stroke-linecap="round" stroke-linejoin="round"/>
<path d="M19.5064 51.3333C8.58641 37.1933 8.5864 18.8066 19.5064 4.66659" stroke="#FFB300" stroke-width="3.5" stroke-linecap="round" stroke-linejoin="round"/>
<path d="M36.143 40.1565C30.4497 32.8065 30.4497 23.2165 36.143 15.8665" stroke="#FFB300" stroke-width="3.5" stroke-linecap="round" stroke-linejoin="round"/>
<path d="M44.6831 34.0669C41.8364 30.3802 41.8364 25.5969 44.6831 21.9102" stroke="#FFB300" stroke-width="3.5" stroke-linecap="round" stroke-linejoin="round"/>
</g>
<g filter="url(#filter1_d_62_65)">
<path d="M63.3418 17.6609C63.9668 17.6804 64.5137 17.6902 64.9824 17.6902C65.4512 17.6707 65.832 17.6609 66.125 17.6609H66.9746C67.1894 17.6414 67.4531 17.6316 67.7656 17.6316C68.0391 17.6316 68.3711 17.6316 68.7617 17.6316C69.1523 17.6316 69.6016 17.6414 70.1094 17.6609C70.2656 18.2078 70.4414 18.7449 70.6367 19.2722C70.8516 19.78 71.0371 20.239 71.1934 20.6492C71.3887 21.1374 71.584 21.5964 71.7793 22.0261C71.9746 22.4558 72.209 22.9734 72.4824 23.5789C72.7168 24.0867 73 24.7117 73.332 25.4539C73.6641 26.1765 74.0547 27.0066 74.5039 27.9441C74.7187 27.3386 74.9141 26.782 75.0898 26.2742C75.2852 25.7664 75.4512 25.3269 75.5879 24.9558C75.7441 24.5261 75.8711 24.1355 75.9687 23.7839C76.0664 23.4324 76.1738 23.0027 76.291 22.4949C76.3887 22.0652 76.4961 21.5476 76.6133 20.9421C76.75 20.3367 76.8867 19.6335 77.0234 18.8328C77.5898 18.8328 78.0977 18.8328 78.5469 18.8328C78.9961 18.8328 79.3867 18.823 79.7187 18.8035C80.0898 18.8035 80.4219 18.7937 80.7148 18.7742C81.0273 18.7742 81.4473 18.7546 81.9746 18.7156C82.4238 18.6765 83.0195 18.6472 83.7617 18.6277C84.5234 18.5886 85.4609 18.5398 86.5742 18.4812C86.1641 18.7742 85.832 19.0671 85.5781 19.3601C85.3437 19.6335 85.1582 19.8777 85.0215 20.0925C84.8652 20.3464 84.7676 20.5906 84.7285 20.8249C84.6894 21.0203 84.6504 21.4695 84.6113 22.1726C84.5918 22.8757 84.5625 23.7156 84.5234 24.6921C84.5039 25.6492 84.4844 26.6746 84.4648 27.7683C84.4648 28.8621 84.4746 29.8972 84.4941 30.8738C84.5137 31.8503 84.543 32.7 84.582 33.4226C84.6406 34.1257 84.7187 34.575 84.8164 34.7703C84.9531 35.0046 85.1387 35.2781 85.373 35.5906C85.5879 35.864 85.8613 36.1765 86.1934 36.5281C86.5449 36.8796 87.0039 37.2703 87.5703 37.7C86.6719 37.739 85.9199 37.7683 85.3144 37.7878C84.7285 37.8074 84.2402 37.8269 83.8496 37.8464C83.4004 37.866 83.0391 37.8757 82.7656 37.8757C82.4727 37.8757 82.0723 37.8855 81.5644 37.905C81.1152 37.9246 80.5195 37.9539 79.7773 37.9929C79.0352 38.0125 78.0781 38.0515 76.9062 38.1101C77.1797 37.7976 77.4336 37.4851 77.668 37.1726C77.9023 36.8601 78.0977 36.5769 78.2539 36.323C78.4492 36.03 78.6152 35.7468 78.7519 35.4734C78.8887 35.1023 78.9961 34.4285 79.0742 33.4519C79.1523 32.6121 79.2109 31.4109 79.25 29.8484C79.2891 28.2664 79.2891 26.1472 79.25 23.491C78.8789 24.0964 78.5469 24.7019 78.2539 25.3074C77.9805 25.8933 77.7363 26.4304 77.5215 26.9187C77.2871 27.4851 77.0723 28.032 76.8769 28.5593C76.6816 29.1062 76.4766 29.7117 76.2617 30.3757C76.0664 30.9421 75.832 31.616 75.5586 32.3972C75.3047 33.1785 75.0117 34.0378 74.6797 34.9753L73.5664 35.0339C73.4101 34.2527 73.2539 33.5496 73.0976 32.9246C72.9414 32.28 72.7851 31.7332 72.6289 31.2839C72.4531 30.7566 72.2773 30.2878 72.1016 29.8777C71.9062 29.4675 71.6914 29.0085 71.457 28.5007C71.2422 28.071 70.9785 27.5632 70.666 26.9773C70.373 26.3914 70.0312 25.7371 69.6406 25.0144C69.4453 27.0066 69.3281 28.6277 69.2891 29.8777C69.25 31.1082 69.25 32.0652 69.2891 32.7488C69.3281 33.5691 69.3867 34.1648 69.4648 34.5359C69.582 34.8679 69.7676 35.239 70.0215 35.6492C70.2363 36.0007 70.5293 36.4207 70.9004 36.9089C71.291 37.3777 71.7891 37.905 72.3945 38.491C71.9648 38.491 71.5156 38.491 71.0469 38.491C70.5781 38.491 70.1484 38.5007 69.7578 38.5203C69.2891 38.5398 68.8301 38.5496 68.3809 38.5496C67.9121 38.5691 67.3652 38.5984 66.7402 38.6375C66.1934 38.6765 65.5391 38.7156 64.7773 38.7546C64.0156 38.7937 63.1367 38.8621 62.1406 38.9597C62.5703 38.6863 62.9219 38.4226 63.1953 38.1687C63.4687 37.8953 63.6836 37.6511 63.8398 37.4363C64.0351 37.1824 64.1816 36.9285 64.2793 36.6746C64.3379 36.5183 64.3867 36.1765 64.4258 35.6492C64.4844 35.1218 64.5332 34.4773 64.5723 33.7156C64.6309 32.9539 64.6699 32.1042 64.6894 31.1667C64.7285 30.2292 64.7578 29.282 64.7773 28.3249C64.8164 27.3484 64.8457 26.4011 64.8652 25.4832C64.8848 24.5457 64.8945 23.7058 64.8945 22.9636C64.9141 22.2019 64.9238 21.5671 64.9238 21.0593C64.9238 20.5515 64.9238 20.2292 64.9238 20.0925C64.8652 19.7996 64.7773 19.5066 64.6601 19.2136C64.5625 18.9597 64.4062 18.696 64.1914 18.4226C63.9766 18.1492 63.6934 17.8953 63.3418 17.6609ZM87.7168 25.1902C88.2246 25.2878 88.6641 25.366 89.0352 25.4246C89.4258 25.4636 89.7578 25.5027 90.0312 25.5417C90.3437 25.5808 90.6172 25.6101 90.8516 25.6296C91.0859 25.6492 91.3594 25.6687 91.6719 25.6882C92.1992 25.7078 92.9414 25.7078 93.8984 25.6882C93.332 25.6492 92.8828 25.7957 92.5508 26.1277C92.2383 26.4402 92.0039 26.8015 91.8477 27.2117C91.6523 27.6999 91.5449 28.2664 91.5254 28.9109C91.4863 29.7703 91.5059 30.5515 91.584 31.2546C91.6816 31.9382 91.8477 32.5242 92.082 33.0125C92.3359 33.4812 92.668 33.8328 93.0781 34.0671C93.4883 34.282 94.0156 34.3406 94.6602 34.2429C95.3047 34.1453 95.793 33.9207 96.125 33.5691C96.4766 33.198 96.7305 32.7488 96.8867 32.2214C97.043 31.6746 97.1309 31.0593 97.1504 30.3757C97.1895 29.6921 97.2187 28.9792 97.2383 28.2371C97.2383 27.4949 97.2285 26.9675 97.209 26.655C97.209 26.323 97.1992 26.1082 97.1797 26.0105C97.1602 25.9128 97.1309 25.8738 97.0918 25.8933C97.0527 25.8933 97.0039 25.8445 96.9453 25.7468C96.9062 25.6687 96.8477 25.5906 96.7695 25.5124C96.7109 25.4343 96.6328 25.3464 96.5352 25.2488C96.4375 25.1316 96.3301 25.0144 96.2129 24.8972C96.7207 24.9167 97.1699 24.9363 97.5605 24.9558C97.9707 24.9558 98.3125 24.9656 98.5859 24.9851C98.8984 25.0046 99.1719 25.0242 99.4062 25.0437C99.6211 25.0632 99.9043 25.0925 100.256 25.1316C100.549 25.1707 100.93 25.2097 101.398 25.2488C101.867 25.2878 102.424 25.3464 103.068 25.4246C102.619 25.5222 102.258 25.6687 101.984 25.864C101.711 26.0593 101.496 26.2546 101.34 26.4499C101.164 26.6648 101.037 26.8992 100.959 27.1531C100.9 27.4851 100.9 27.9929 100.959 28.6765C100.998 29.282 101.096 30.1121 101.252 31.1667C101.408 32.2214 101.652 33.6082 101.984 35.3269L99.6699 36.7039L99.2012 32.8074C98.6348 33.7644 98.0293 34.5066 97.3848 35.0339C96.7598 35.5417 96.1738 35.9128 95.627 36.1472C94.9824 36.4207 94.3574 36.5769 93.752 36.616C92.9512 36.616 92.2578 36.5671 91.6719 36.4695C91.1055 36.3523 90.6172 36.2058 90.207 36.03C89.7969 35.8542 89.4648 35.6589 89.2109 35.4441C88.9766 35.2097 88.8008 34.9753 88.6836 34.741C88.4102 34.2527 88.2637 33.6277 88.2441 32.866C88.2246 32.0847 88.2539 31.3132 88.332 30.5515C88.4102 29.7703 88.498 29.0574 88.5957 28.4128C88.6934 27.7683 88.7227 27.3289 88.6836 27.0945C88.6445 26.9187 88.5859 26.7234 88.5078 26.5085C88.4297 26.3328 88.332 26.1374 88.2148 25.9226C88.0977 25.6882 87.9316 25.4441 87.7168 25.1902ZM103.361 24.78C103.811 24.741 104.191 24.7019 104.504 24.6628C104.836 24.6238 105.109 24.5847 105.324 24.5457C105.578 24.5066 105.793 24.4675 105.969 24.4285C106.145 24.4089 106.34 24.3699 106.555 24.3113C106.75 24.2722 106.965 24.2234 107.199 24.1648C107.453 24.0867 107.727 23.9988 108.02 23.9011L107.844 27.6218C108.273 26.9382 108.771 26.4207 109.338 26.0691C109.904 25.698 110.441 25.4246 110.949 25.2488C111.555 25.0339 112.16 24.907 112.766 24.8679C113.391 24.8874 113.967 24.9851 114.494 25.1609C114.943 25.3171 115.393 25.5613 115.842 25.8933C116.311 26.2253 116.672 26.7136 116.926 27.3582C117.59 26.6746 118.244 26.1472 118.889 25.7761C119.553 25.3855 120.139 25.0925 120.646 24.8972C121.252 24.6824 121.818 24.5554 122.346 24.5164C123.049 24.4968 123.693 24.614 124.279 24.8679C124.885 25.1218 125.412 25.4441 125.861 25.8347C126.311 26.2058 126.672 26.6062 126.945 27.0359C127.219 27.446 127.375 27.8074 127.414 28.1199C127.473 28.5496 127.443 29.1062 127.326 29.7898C127.209 30.4539 127.072 31.1375 126.916 31.8406C126.76 32.5242 126.613 33.1589 126.477 33.7449C126.359 34.3113 126.311 34.7117 126.33 34.946C126.389 35.1414 126.525 35.3757 126.74 35.6492C126.936 35.8835 127.219 36.1765 127.59 36.5281C127.98 36.8601 128.537 37.2507 129.26 37.7C128.635 37.6804 128.078 37.6609 127.59 37.6414C127.121 37.6218 126.721 37.5925 126.389 37.5535C125.998 37.5144 125.656 37.4851 125.363 37.4656C125.129 37.4656 124.846 37.446 124.514 37.407C124.24 37.3875 123.879 37.3582 123.43 37.3191C123 37.28 122.502 37.241 121.936 37.2019C122.15 37.1433 122.326 37.0359 122.463 36.8796C122.6 36.7039 122.717 36.5378 122.814 36.3816C122.912 36.1863 122.99 35.9714 123.049 35.7371C123.088 35.5417 123.127 35.2292 123.166 34.7996C123.205 34.3699 123.234 33.8816 123.254 33.3347C123.293 32.7878 123.313 32.2117 123.313 31.6062C123.332 31.0007 123.332 30.4246 123.313 29.8777C123.293 29.3308 123.254 28.8328 123.195 28.3835C123.137 27.9343 123.059 27.5925 122.961 27.3582C122.883 27.1824 122.746 27.0457 122.551 26.948C122.355 26.8308 122.131 26.7624 121.877 26.7429C121.623 26.7039 121.369 26.7136 121.115 26.7722C120.861 26.8113 120.637 26.8894 120.441 27.0066C120.266 27.1433 120.031 27.3289 119.738 27.5632C119.484 27.7781 119.152 28.071 118.742 28.4421C118.332 28.8132 117.814 29.282 117.189 29.8484C117.131 31.0789 117.082 32.075 117.043 32.8367C117.023 33.5789 117.004 34.1453 116.984 34.5359C116.965 35.0046 116.955 35.3269 116.955 35.5027C116.936 35.6589 116.945 35.8054 116.984 35.9421C117.023 36.2351 117.141 36.5085 117.336 36.7625C117.102 36.7039 116.848 36.6648 116.574 36.6453C116.32 36.6257 116.086 36.6062 115.871 36.5867C115.617 36.5671 115.363 36.5574 115.109 36.5574C114.895 36.5574 114.66 36.5671 114.406 36.5867C114.191 36.6062 113.928 36.6355 113.615 36.6746C113.303 36.6941 112.961 36.7234 112.59 36.7625C112.746 36.6648 112.873 36.5476 112.971 36.4109C113.068 36.2742 113.146 36.1472 113.205 36.03C113.283 35.8933 113.342 35.7664 113.381 35.6492C113.4 35.532 113.439 35.2488 113.498 34.7996C113.557 34.3308 113.596 33.7839 113.615 33.1589C113.635 32.5339 113.635 31.8796 113.615 31.196C113.596 30.4929 113.527 29.8582 113.41 29.2917C113.293 28.7058 113.107 28.2273 112.854 27.8562C112.619 27.4851 112.307 27.3191 111.916 27.3582C111.447 27.3972 110.969 27.5144 110.48 27.7097C110.07 27.866 109.631 28.1003 109.162 28.4128C108.693 28.7253 108.254 29.1453 107.844 29.6726C107.766 31.1375 107.717 32.2996 107.697 33.1589C107.697 34.0183 107.707 34.6726 107.727 35.1218C107.746 35.6492 107.766 36.0105 107.785 36.2058C107.805 36.3425 107.854 36.4792 107.932 36.616C107.99 36.7332 108.059 36.8699 108.137 37.0261C108.234 37.1824 108.342 37.3289 108.459 37.4656L103.801 37.2312C103.957 37.1531 104.094 37.0554 104.211 36.9382C104.328 36.8015 104.426 36.6648 104.504 36.5281C104.582 36.3718 104.66 36.2156 104.738 36.0593C104.797 35.9226 104.846 35.6003 104.885 35.0925C104.943 34.5847 104.992 33.989 105.031 33.3054C105.07 32.6023 105.1 31.8699 105.119 31.1082C105.158 30.3269 105.178 29.6042 105.178 28.9402C105.197 28.2566 105.207 27.6804 105.207 27.2117C105.207 26.7234 105.197 26.4304 105.178 26.3328C105.119 26.1374 105.012 25.9324 104.855 25.7175C104.719 25.5613 104.533 25.3953 104.299 25.2195C104.064 25.0242 103.752 24.8777 103.361 24.78ZM137.668 17.866C138.352 17.9441 138.928 18.0027 139.396 18.0417C139.865 18.0613 140.236 18.0808 140.51 18.1003C140.842 18.1199 141.105 18.1296 141.301 18.1296C141.633 18.1296 142.014 18.1199 142.443 18.1003C142.814 18.0808 143.244 18.0515 143.732 18.0124C144.24 17.9539 144.787 17.866 145.373 17.7488C145.1 18.0417 144.875 18.3249 144.699 18.5984C144.523 18.8523 144.387 19.0867 144.289 19.3015C144.172 19.5359 144.074 19.7507 143.996 19.946C143.918 20.1999 143.83 20.5906 143.732 21.1179C143.635 21.5671 143.527 22.2019 143.41 23.0222C143.313 23.8425 143.186 24.9167 143.029 26.2449C143.693 26.2644 144.27 26.2742 144.758 26.2742C145.246 26.2546 145.656 26.2449 145.988 26.2449H146.955C147.229 26.2253 147.541 26.2058 147.893 26.1863C148.479 26.1667 149.367 26.1082 150.559 26.0105C150.656 25.1121 150.705 24.3406 150.705 23.696C150.725 23.032 150.715 22.4753 150.676 22.0261C150.637 21.5183 150.578 21.0886 150.5 20.7371C150.441 20.5417 150.354 20.3074 150.236 20.0339C150.139 19.7996 150.002 19.5164 149.826 19.1843C149.67 18.8328 149.455 18.4128 149.182 17.9246C149.689 18.0027 150.139 18.0613 150.529 18.1003C150.939 18.1199 151.281 18.1394 151.555 18.1589C151.867 18.1785 152.131 18.1882 152.346 18.1882C152.561 18.1882 152.844 18.1785 153.195 18.1589C153.488 18.1394 153.85 18.1296 154.279 18.1296C154.709 18.1101 155.236 18.0808 155.861 18.0417C155.705 18.3152 155.568 18.5984 155.451 18.8914C155.334 19.1843 155.236 19.448 155.158 19.6824C155.08 19.9558 155.002 20.2292 154.924 20.5027C154.826 20.9128 154.738 21.5085 154.66 22.2898C154.602 23.071 154.543 23.9402 154.484 24.8972C154.445 25.8542 154.406 26.8503 154.367 27.8855C154.348 28.9207 154.328 29.8972 154.309 30.8152C154.309 31.7332 154.318 32.5535 154.338 33.2761C154.357 33.9792 154.396 34.4773 154.455 34.7703C154.514 35.1218 154.611 35.4832 154.748 35.8542C154.865 36.1863 155.021 36.5476 155.217 36.9382C155.412 37.3093 155.666 37.6609 155.979 37.9929L148.918 38.5203C149.211 38.2468 149.445 37.9832 149.621 37.7292C149.797 37.4558 149.934 37.2214 150.031 37.0261C150.129 36.8113 150.197 36.6062 150.236 36.4109C150.256 36.1765 150.285 35.7664 150.324 35.1804C150.363 34.6921 150.402 33.9988 150.441 33.1003C150.48 32.2019 150.52 31.0105 150.559 29.5261C150.285 29.5261 149.953 29.5359 149.563 29.5554C149.191 29.5554 148.84 29.5652 148.508 29.5847C148.117 29.6042 147.707 29.614 147.277 29.614C146.848 29.6335 146.398 29.6531 145.93 29.6726C145.539 29.7117 145.1 29.7507 144.611 29.7898C144.143 29.8093 143.674 29.8386 143.205 29.8777C143.166 30.698 143.166 31.4207 143.205 32.0457C143.244 32.6511 143.303 33.1687 143.381 33.5984C143.459 34.1062 143.557 34.5457 143.674 34.9167C143.791 35.2683 143.918 35.6199 144.055 35.9714C144.172 36.2839 144.309 36.616 144.465 36.9675C144.641 37.3191 144.816 37.6316 144.992 37.905C144.621 37.866 144.279 37.8367 143.967 37.8171C143.654 37.7781 143.381 37.739 143.146 37.7C142.873 37.6804 142.609 37.6609 142.355 37.6414C142.102 37.6414 141.799 37.6316 141.447 37.6121C141.135 37.5925 140.744 37.5828 140.275 37.5828C139.807 37.5632 139.26 37.5535 138.635 37.5535C139.006 37.1824 139.299 36.821 139.514 36.4695C139.748 36.0984 139.914 35.7664 140.012 35.4734C140.129 35.1218 140.207 34.7996 140.246 34.5066C140.266 34.2527 140.275 33.7742 140.275 33.071C140.295 32.3679 140.295 31.5671 140.275 30.6687C140.275 29.7507 140.266 28.7937 140.246 27.7976C140.227 26.782 140.197 25.8347 140.158 24.9558C140.139 24.0769 140.109 23.3249 140.07 22.6999C140.051 22.0554 140.031 21.655 140.012 21.4988C139.914 21.1472 139.768 20.7664 139.572 20.3562C139.396 20.0242 139.162 19.6433 138.869 19.2136C138.576 18.7644 138.176 18.3152 137.668 17.866ZM164.328 33.95C164.875 33.95 165.383 33.8914 165.852 33.7742C166.242 33.6765 166.613 33.5203 166.965 33.3054C167.336 33.071 167.58 32.7292 167.697 32.28C168.088 32.3582 168.42 32.4265 168.693 32.4851C168.967 32.5242 169.201 32.5632 169.396 32.6023C169.611 32.6609 169.797 32.7 169.953 32.7195C170.109 32.7585 170.295 32.7976 170.51 32.8367C170.705 32.8757 170.939 32.9246 171.213 32.9832C171.506 33.0222 171.848 33.0808 172.238 33.1589C171.945 33.1199 171.643 33.1492 171.33 33.2468C171.037 33.3445 170.754 33.4519 170.48 33.5691C170.168 33.7058 169.875 33.8718 169.602 34.0671C169.426 34.1843 169.221 34.3601 168.986 34.5945C168.771 34.8289 168.459 35.0535 168.049 35.2683C167.639 35.4832 167.092 35.6687 166.408 35.825C165.744 35.9617 164.885 36.0105 163.83 35.9714C162.561 35.9324 161.496 35.7078 160.637 35.2976C159.777 34.8679 159.084 34.3503 158.557 33.7449C158.029 33.1199 157.648 32.446 157.414 31.7234C157.18 31.0007 157.053 30.3269 157.033 29.7019C157.014 29.0769 157.199 28.4226 157.59 27.739C157.98 27.0554 158.527 26.4304 159.23 25.864C159.953 25.2976 160.822 24.8386 161.838 24.4871C162.854 24.116 163.967 23.9304 165.178 23.9304C165.881 23.9304 166.525 24.0183 167.111 24.1941C167.717 24.3503 168.264 24.5652 168.752 24.8386C169.26 25.1121 169.699 25.4246 170.07 25.7761C170.441 26.1082 170.754 26.4499 171.008 26.8015C171.262 27.1726 171.477 27.5632 171.652 27.9734C171.809 28.3249 171.936 28.7253 172.033 29.1746C172.131 29.6238 172.16 30.0828 172.121 30.5515C170.637 30.5906 169.436 30.6199 168.518 30.6394C167.619 30.6589 166.916 30.6687 166.408 30.6687H165.09H164.094C163.742 30.6687 163.283 30.6785 162.717 30.698C162.15 30.7175 161.457 30.7468 160.637 30.7859C160.734 31.5671 160.979 32.1726 161.369 32.6023C161.779 33.0125 162.209 33.325 162.658 33.5398C163.166 33.7742 163.723 33.9109 164.328 33.95ZM161.691 28.6765C162.316 28.7156 162.834 28.7449 163.244 28.7644C163.674 28.7839 164.025 28.8035 164.299 28.823C164.592 28.8425 164.826 28.8523 165.002 28.8523H165.734C166.223 28.8523 167.131 28.823 168.459 28.7644C168.4 27.905 168.215 27.2507 167.902 26.8015C167.609 26.3523 167.297 26.0203 166.965 25.8054C166.574 25.571 166.145 25.4343 165.676 25.3953C164.406 25.4148 163.459 25.6785 162.834 26.1863C162.229 26.6941 161.848 27.5242 161.691 28.6765ZM175.49 26.8015C175.588 26.6843 175.646 26.4695 175.666 26.157C175.705 25.8249 175.783 25.4539 175.9 25.0437C176.037 24.6335 176.262 24.2039 176.574 23.7546C176.887 23.3054 177.395 22.8855 178.098 22.4949C178.781 22.1042 179.445 21.8699 180.09 21.7917C180.734 21.7136 181.35 21.7429 181.936 21.8796C182.521 22.0164 183.068 22.2312 183.576 22.5242C184.104 22.8171 184.582 23.1394 185.012 23.491C185.305 23.7253 185.539 24.0671 185.715 24.5164C185.891 24.946 186.027 25.4343 186.125 25.9812C186.223 26.5281 186.291 27.1042 186.33 27.7097C186.389 28.2957 186.428 28.8718 186.447 29.4382C186.467 29.9851 186.477 30.4929 186.477 30.9617C186.496 31.4109 186.535 31.782 186.594 32.075C186.672 32.5046 186.809 32.8757 187.004 33.1882C187.199 33.4812 187.414 33.7351 187.648 33.95C187.883 34.1453 188.117 34.3015 188.352 34.4187C188.586 34.5359 188.791 34.6238 188.967 34.6824C189.084 34.741 189.191 34.78 189.289 34.7996C189.484 34.8777 189.621 34.8777 189.699 34.7996C189.582 35.073 189.475 35.3074 189.377 35.5027C189.279 35.698 189.201 35.864 189.143 36.0007C189.064 36.157 188.996 36.2839 188.938 36.3816C188.879 36.4988 188.811 36.6062 188.732 36.7039C188.674 36.8015 188.596 36.9089 188.498 37.0261C188.4 37.1433 188.303 37.2703 188.205 37.407C187.951 37.3093 187.707 37.1921 187.473 37.0554C187.258 36.9187 187.063 36.7917 186.887 36.6746C186.672 36.5378 186.477 36.4011 186.301 36.2644C186.125 36.1277 185.959 35.9714 185.803 35.7957C185.666 35.6394 185.52 35.4734 185.363 35.2976C185.227 35.1218 185.109 34.9265 185.012 34.7117C184.895 34.9656 184.611 35.3269 184.162 35.7957C183.732 36.2644 183.166 36.6941 182.463 37.0847C181.76 37.4558 180.939 37.7195 180.002 37.8757C179.084 38.032 178.068 37.9246 176.955 37.5535C176.467 37.3972 176.008 37.1726 175.578 36.8796C175.148 36.5671 174.777 36.196 174.465 35.7664C174.172 35.3367 173.957 34.8484 173.82 34.3015C173.703 33.7351 173.713 33.1101 173.85 32.4265C173.986 31.7429 174.23 31.1667 174.582 30.698C174.934 30.2292 175.354 29.8484 175.842 29.5554C176.33 29.2624 176.877 29.0378 177.482 28.8816C178.088 28.7253 178.713 28.6179 179.357 28.5593C179.865 28.5398 180.373 28.5691 180.881 28.6472C181.311 28.7253 181.76 28.8718 182.229 29.0867C182.697 29.282 183.098 29.5847 183.43 29.9949C183.41 28.9597 183.371 28.1394 183.313 27.5339C183.273 26.9089 183.234 26.4304 183.195 26.0984C183.117 25.7078 183.049 25.4343 182.99 25.2781C182.893 25.1414 182.785 24.9851 182.668 24.8093C182.57 24.6335 182.443 24.4773 182.287 24.3406C182.131 24.1843 181.936 24.0574 181.701 23.9597C181.467 23.8621 181.193 23.823 180.881 23.8425C180.549 23.8621 180.285 23.9499 180.09 24.1062C179.895 24.2624 179.738 24.448 179.621 24.6628C179.523 24.8582 179.465 25.073 179.445 25.3074C179.426 25.5417 179.436 25.7468 179.475 25.9226C179.514 26.0398 179.572 26.1667 179.65 26.3035C179.729 26.4207 179.836 26.5476 179.973 26.6843C180.109 26.821 180.295 26.9382 180.529 27.0359C180.08 27.0945 179.68 27.1433 179.328 27.1824C178.977 27.2019 178.674 27.2312 178.42 27.2703C178.127 27.3093 177.873 27.3386 177.658 27.3582C177.443 27.3777 177.189 27.4167 176.896 27.4753C176.643 27.5144 176.33 27.5632 175.959 27.6218C175.588 27.6804 175.158 27.7585 174.67 27.8562C174.787 27.7195 174.895 27.5925 174.992 27.4753C175.09 27.3386 175.178 27.2214 175.256 27.1238C175.334 27.0066 175.412 26.8992 175.49 26.8015ZM179.885 30.2878C179.533 30.3074 179.182 30.3953 178.83 30.5515C178.479 30.6882 178.166 30.8933 177.893 31.1667C177.619 31.4207 177.385 31.7234 177.189 32.075C177.014 32.407 176.926 32.7781 176.926 33.1882C176.926 33.5984 177.023 33.9597 177.219 34.2722C177.434 34.5652 177.707 34.8093 178.039 35.0046C178.391 35.2 178.762 35.3171 179.152 35.3562C179.563 35.3953 179.963 35.3562 180.354 35.239C180.725 35.1023 181.076 34.8875 181.408 34.5945C181.74 34.282 182.023 33.95 182.258 33.5984C182.492 33.2273 182.658 32.866 182.756 32.5144C182.854 32.1433 182.863 31.8406 182.785 31.6062C182.629 31.0984 182.277 30.7468 181.73 30.5515C181.184 30.3367 180.568 30.2488 179.885 30.2878ZM190.08 39.4871C190.275 39.1941 190.432 38.9207 190.549 38.6667C190.666 38.4128 190.764 38.198 190.842 38.0222C190.92 37.8074 190.979 37.6121 191.018 37.4363C191.037 37.3191 191.047 36.9773 191.047 36.4109C191.047 35.8445 191.027 35.1316 190.988 34.2722C190.969 33.4128 190.939 32.446 190.9 31.3718C190.881 30.2976 190.842 29.2039 190.783 28.0906C190.744 26.9773 190.695 25.8933 190.637 24.8386C190.598 23.7839 190.559 22.8367 190.52 21.9968C190.48 21.1374 190.441 20.4343 190.402 19.8874C190.363 19.3406 190.334 19.0281 190.314 18.9499C190.275 18.8328 190.207 18.7156 190.109 18.5984C189.914 18.364 189.582 18.1394 189.113 17.9246C190.109 17.6707 190.871 17.4656 191.398 17.3093C191.711 17.2312 191.984 17.1531 192.219 17.0749C192.434 16.9968 192.648 16.9187 192.863 16.8406C193.039 16.7624 193.234 16.6746 193.449 16.5769C193.664 16.4597 193.859 16.3328 194.035 16.196C193.938 16.7624 193.859 17.3093 193.801 17.8367C193.742 18.364 193.693 18.8523 193.654 19.3015C193.615 19.8093 193.596 20.2976 193.596 20.7664C193.498 21.7234 193.439 22.7683 193.42 23.9011C193.42 25.0144 193.43 26.1472 193.449 27.2996C193.469 28.4519 193.508 29.575 193.566 30.6687C193.625 31.7625 193.684 32.7585 193.742 33.657C193.82 34.5359 193.889 35.2878 193.947 35.9128C194.025 36.5183 194.084 36.9089 194.123 37.0847C194.201 37.3777 194.279 37.6609 194.357 37.9343C194.436 38.1687 194.523 38.4128 194.621 38.6667C194.719 38.9402 194.836 39.155 194.973 39.3113H192.131C191.877 39.3113 191.633 39.321 191.398 39.3406C191.184 39.3601 190.959 39.3796 190.725 39.3992C190.49 39.4187 190.275 39.448 190.08 39.4871ZM195.676 20.2097C196.262 20.2683 196.75 20.3171 197.141 20.3562C197.551 20.3953 197.883 20.4246 198.137 20.4441C198.43 20.4636 198.664 20.4734 198.84 20.4734C199.016 20.4929 199.25 20.4929 199.543 20.4734C199.797 20.4539 200.129 20.4343 200.539 20.4148C200.949 20.3757 201.467 20.3171 202.092 20.239C201.955 20.4343 201.848 20.6101 201.77 20.7664C201.691 20.9031 201.623 21.03 201.564 21.1472L201.389 21.4988C201.35 21.616 201.311 21.7332 201.271 21.8503C201.232 21.948 201.193 22.0652 201.154 22.2019C201.135 22.3386 201.115 22.4851 201.096 22.6414H205.607L205.197 25.0144L201.066 24.78C200.969 25.7761 200.9 26.5476 200.861 27.0945C200.822 27.6414 200.783 28.0417 200.744 28.2957L200.686 28.823C200.627 29.5652 200.568 30.3757 200.51 31.2546C200.451 32.114 200.432 32.9148 200.451 33.657C200.471 34.3992 200.539 35.0242 200.656 35.532C200.773 36.0203 200.979 36.2644 201.271 36.2644C201.564 36.2644 201.838 36.1863 202.092 36.03C202.346 35.8738 202.561 35.6882 202.736 35.4734C202.932 35.2585 203.078 35.0437 203.176 34.8289C203.273 34.5945 203.322 34.4187 203.322 34.3015C203.322 34.1843 203.293 34.0476 203.234 33.8914C203.137 33.5984 202.961 33.2273 202.707 32.7781C203.273 32.9148 203.771 33.0515 204.201 33.1882C204.416 33.2664 204.611 33.3445 204.787 33.4226C204.982 33.5007 205.207 33.5886 205.461 33.6863C205.676 33.7839 205.949 33.9011 206.281 34.0378C206.613 34.1746 207.004 34.3406 207.453 34.5359C207.023 34.614 206.711 34.741 206.516 34.9167C206.398 34.9949 206.311 35.0828 206.252 35.1804C206.115 35.3953 205.959 35.6882 205.783 36.0593C205.607 36.4109 205.344 36.7625 204.992 37.114C204.641 37.4656 204.162 37.7781 203.557 38.0515C202.971 38.325 202.18 38.4812 201.184 38.5203C200.148 38.5593 199.357 38.3835 198.811 37.9929C198.283 37.6023 197.893 37.1531 197.639 36.6453C197.404 36.1179 197.268 35.6003 197.229 35.0925C197.189 34.5847 197.16 34.2429 197.141 34.0671C197.121 33.8914 197.121 33.4519 197.141 32.7488C197.16 32.0457 197.189 31.2742 197.229 30.4343C197.268 29.575 197.307 28.7546 197.346 27.9734C197.385 27.1726 197.404 26.5867 197.404 26.2156C197.404 26.0203 197.414 25.8152 197.434 25.6003C197.434 25.4246 197.434 25.239 197.434 25.0437C197.453 24.8289 197.463 24.6238 197.463 24.4285L193.215 24.3992L193.039 22.7292L197.316 22.8464C197.277 22.6316 197.229 22.4363 197.17 22.2605C197.131 22.0652 197.092 21.9089 197.053 21.7917C196.994 21.655 196.936 21.5378 196.877 21.4402C196.799 21.3425 196.711 21.2351 196.613 21.1179C196.516 21.0203 196.389 20.8933 196.232 20.7371C196.076 20.5808 195.891 20.405 195.676 20.2097ZM206.105 16.4597C206.555 16.5378 206.965 16.5964 207.336 16.6355C207.707 16.655 208.02 16.6746 208.273 16.6941C208.566 16.7136 208.82 16.7234 209.035 16.7234C209.328 16.7039 209.67 16.6746 210.061 16.6355C210.393 16.5964 210.793 16.5476 211.262 16.489C211.75 16.4304 212.307 16.3523 212.932 16.2546C212.639 16.4109 212.395 16.5671 212.199 16.7234C212.004 16.8601 211.848 17.0066 211.73 17.1628C211.594 17.3386 211.486 17.5046 211.408 17.6609C211.311 17.9148 211.203 18.4421 211.086 19.2429C210.969 19.9265 210.822 20.9421 210.646 22.2898C210.49 23.6374 210.285 25.4636 210.031 27.7683C210.734 27.0652 211.398 26.5378 212.023 26.1863C212.668 25.8152 213.234 25.5515 213.723 25.3953C214.289 25.2195 214.816 25.1316 215.305 25.1316C215.91 25.1902 216.525 25.3855 217.15 25.7175C217.795 26.03 218.391 26.4011 218.938 26.8308C219.504 27.2605 219.992 27.7195 220.402 28.2078C220.832 28.696 221.135 29.1257 221.311 29.4968C221.428 29.7507 221.486 30.0828 221.486 30.4929C221.486 30.8835 221.447 31.3132 221.369 31.782C221.291 32.2507 221.184 32.7292 221.047 33.2175C220.91 33.7058 220.773 34.1648 220.637 34.5945C220.52 35.0242 220.412 35.405 220.314 35.7371C220.217 36.0496 220.158 36.2742 220.139 36.4109C220.1 36.7039 220.119 36.9871 220.197 37.2605C220.256 37.4949 220.373 37.7488 220.549 38.0222C220.725 38.2761 220.988 38.491 221.34 38.6667C221.066 38.6277 220.773 38.5984 220.461 38.5789C220.168 38.5398 219.885 38.5105 219.611 38.491C219.299 38.4714 218.986 38.4617 218.674 38.4617H217.619C217.287 38.4617 216.906 38.4714 216.477 38.491C216.047 38.491 215.578 38.5007 215.07 38.5203C215.344 38.4226 215.578 38.2957 215.773 38.1394C215.969 37.9636 216.135 37.7976 216.271 37.6414C216.428 37.4656 216.564 37.28 216.682 37.0847C216.76 36.9285 216.857 36.6355 216.975 36.2058C217.092 35.7566 217.199 35.2488 217.297 34.6824C217.395 34.0964 217.463 33.4812 217.502 32.8367C217.561 32.1921 217.57 31.5769 217.531 30.991C217.512 30.3855 217.424 29.8484 217.268 29.3796C217.131 28.9109 216.916 28.5691 216.623 28.3542C215.744 27.6902 214.943 27.3679 214.221 27.3874C213.518 27.3874 212.844 27.6707 212.199 28.2371C211.965 28.4519 211.74 28.6667 211.525 28.8816C211.33 29.0769 211.115 29.3113 210.881 29.5847C210.646 29.8386 210.432 30.1023 210.236 30.3757C210.236 30.6687 210.246 30.991 210.266 31.3425C210.285 31.6941 210.305 32.0359 210.324 32.3679C210.344 32.739 210.373 33.1101 210.412 33.4812C210.451 34.0476 210.51 34.6042 210.588 35.1511C210.646 35.6199 210.725 36.1375 210.822 36.7039C210.92 37.2507 211.047 37.7488 211.203 38.198C210.949 38.1589 210.686 38.1492 210.412 38.1687C210.139 38.1687 209.875 38.1687 209.621 38.1687C209.328 38.1882 209.045 38.198 208.771 38.198C208.518 38.2175 208.254 38.2468 207.98 38.2859C207.746 38.325 207.492 38.364 207.219 38.4031C206.945 38.4226 206.682 38.4617 206.428 38.5203C206.662 38.071 206.857 37.6316 207.014 37.2019C207.17 36.7527 207.297 36.3621 207.395 36.03C207.512 35.6394 207.609 35.2585 207.688 34.8875C207.746 34.5945 207.785 34.0378 207.805 33.2175C207.844 32.3777 207.873 31.4207 207.893 30.3464C207.912 29.2527 207.922 28.1003 207.922 26.8894C207.922 25.6785 207.912 24.5261 207.893 23.4324C207.873 22.3386 207.834 21.3816 207.775 20.5613C207.736 19.741 207.688 19.1746 207.629 18.8621C207.551 18.5496 207.443 18.2371 207.307 17.9246C207.189 17.6511 207.033 17.3874 206.838 17.1335C206.643 16.8601 206.398 16.6355 206.105 16.4597Z" fill="white"/>
</g>
<defs>
<filter id="filter0_d_62_65" x="-4" y="0" width="64" height="64" filterUnits="userSpaceOnUse" color-interpolation-filters="sRGB">
<feFlood flood-opacity="0" result="BackgroundImageFix"/>
<feColorMatrix in="SourceAlpha" type="matrix" values="0 0 0 0 0 0 0 0 0 0 0 0 0 0 0 0 0 0 127 0" result="hardAlpha"/>
<feOffset dy="4"/>
<feGaussianBlur stdDeviation="2"/>
<feComposite in2="hardAlpha" operator="out"/>
<feColorMatrix type="matrix" values="0 0 0 0 0 0 0 0 0 0 0 0 0 0 0 0 0 0 0.25 0"/>
<feBlend mode="normal" in2="BackgroundImageFix" result="effect1_dropShadow_62_65"/>
<feBlend mode="normal" in="SourceGraphic" in2="effect1_dropShadow_62_65" result="shape"/>
</filter>
<filter id="filter1_d_62_65" x="58.1406" y="16.196" width="167.346" height="31.291" filterUnits="userSpaceOnUse" color-interpolation-filters="sRGB">
<feFlood flood-opacity="0" result="BackgroundImageFix"/>
<feColorMatrix in="SourceAlpha" type="matrix" values="0 0 0 0 0 0 0 0 0 0 0 0 0 0 0 0 0 0 127 0" result="hardAlpha"/>
<feOffset dy="4"/>
<feGaussianBlur stdDeviation="2"/>
<feComposite in2="hardAlpha" operator="out"/>
<feColorMatrix type="matrix" values="0 0 0 0 0 0 0 0 0 0 0 0 0 0 0 0 0 0 0.25 0"/>
<feBlend mode="normal" in2="BackgroundImageFix" result="effect1_dropShadow_62_65"/>
<feBlend mode="normal" in="SourceGraphic" in2="effect1_dropShadow_62_65" result="shape"/>
</filter>
</defs>
</svg>
